<svg width="90" height="90" xmlns="http://www.w3.org/2000/svg" xmlns:xlink="http://www.w3.org/1999/xlink" xml:space="preserve" overflow="hidden"><g transform="translate(-455 -264)"><path d="M500 265.125C524.232 265.125 543.875 284.768 543.875 309L543.875 309C543.875 333.232 524.232 352.875 500 352.875L500 352.875C475.768 352.875 456.125 333.232 456.125 309L456.125 309C456.125 284.768 475.768 265.125 500 265.125Z" fill="#FFFFFF"/><g><path d="M521.6 309.511C521.6 307.916 521.457 306.382 521.191 304.909L500 304.909 500 313.612 512.109 313.612C511.587 316.425 510.002 318.808 507.619 320.403L507.619 326.049 514.891 326.049C519.146 322.132 521.6 316.364 521.6 309.511Z" fill="#4285F4"/><path d="M500 331.5C506.075 331.5 511.168 329.485 514.891 326.049L507.619 320.403C505.605 321.753 503.027 322.551 500 322.551 494.14 322.551 489.18 318.593 487.41 313.275L479.893 313.275 479.893 319.105C483.595 326.458 491.205 331.5 500 331.5Z" fill="#34A853"/><path d="M487.41 313.275C486.96 311.925 486.705 310.483 486.705 309 486.705 307.517 486.96 306.075 487.41 304.725L487.41 298.895 479.893 298.895C478.369 301.933 477.5 305.369 477.5 309 477.5 312.631 478.369 316.067 479.893 319.105L487.41 313.275Z" fill="#FBBC04"/><path d="M500 295.449C503.303 295.449 506.269 296.584 508.601 298.814L515.055 292.36C511.158 288.73 506.065 286.5 500 286.5 491.205 286.5 483.595 291.542 479.893 298.895L487.41 304.725C489.18 299.407 494.14 295.449 500 295.449Z" fill="#E94235"/></g><path d="M500 265.125C524.232 265.125 543.875 284.768 543.875 309L543.875 309C543.875 333.232 524.232 352.875 500 352.875L500 352.875C475.768 352.875 456.125 333.232 456.125 309L456.125 309C456.125 284.768 475.768 265.125 500 265.125Z" stroke="#747775" stroke-width="2.25" fill="none"/></g></svg>