<svg width="1273" height="690" xmlns="http://www.w3.org/2000/svg" xmlns:xlink="http://www.w3.org/1999/xlink" xml:space="preserve" overflow="hidden"><defs><filter id="fx0" x="-10%" y="-10%" width="120%" height="120%" filterUnits="userSpaceOnUse" primitiveUnits="userSpaceOnUse"><feComponentTransfer color-interpolation-filters="sRGB"><feFuncR type="discrete" tableValues="0 0"/><feFuncG type="discrete" tableValues="0 0"/><feFuncB type="discrete" tableValues="0 0"/><feFuncA type="linear" slope="0.4" intercept="0"/></feComponentTransfer><feGaussianBlur stdDeviation="6.11111 6.11111"/></filter></defs><g transform="translate(-1350 -166)"><path d="M2360.11 251.22 2329.13 290.049 2320.59 282.886 2297.75 325.073 2288.21 318.33 2244.89 376.75 2264.77 299.937 2275.54 308.539 2288.74 260.46 2302.89 269.843 2316.64 219.159Z" stroke="#FFFF00" stroke-width="6.875" stroke-miterlimit="8" fill="#FFFF9F" fill-rule="evenodd"/><text fill="#233446" font-family="RixSejongroGulim_Pro Black,RixSejongroGulim_Pro Black_MSFontService,sans-serif" font-weight="900" font-size="303" transform="matrix(1 0 0 1 1531.87 592)">해머</text><text fill="#686BFF" font-family="RixSejongroGulim_Pro Black,RixSejongroGulim_Pro Black_MSFontService,sans-serif" font-weight="900" font-size="303" transform="matrix(1 0 0 1 2079.58 592)">틴</text><path d="M2083.74 171.723 2107.98 229.898 2095.6 235.535 2127.94 286.315 2115.45 293.357 2153.74 377.104 2082.81 309.583 2097.97 302.218 2053.99 259.085 2071.86 248.285 2025.41 203.012Z" stroke="#FFFF00" stroke-width="6.875" stroke-miterlimit="8" fill="#FFFF9F" fill-rule="evenodd"/><g filter="url(#fx0)" transform="translate(2342 344)"><g><path d="M119.702 134.358 139.403 144.516 69.3456 280.399 49.6443 270.241Z" fill="#BFBFBF" fill-rule="evenodd"/><path d="M52.7317 268.75 68.7693 277.019 70.7116 283.096 59.0873 305.642 59.0873 305.642 35.0306 293.239 35.0306 293.239 46.6549 270.693Z" fill="#BFBFBF" fill-rule="evenodd"/><path d="M81.8344 256.175 66.0071 238.503 73.2107 224.531 89.038 242.203Z" fill="#80350E" fill-rule="evenodd"/><path d="M72.758 273.78 56.9307 256.108 64.1343 242.136 79.9616 259.808Z" fill="#80350E" fill-rule="evenodd"/><path d="M90.9108 238.57 75.0835 220.899 82.2872 206.927 98.1144 224.598Z" fill="#80350E" fill-rule="evenodd"/><path d="M99.9877 220.965 84.1605 203.294 91.3641 189.322 107.191 206.994Z" fill="#80350E" fill-rule="evenodd"/><path d="M109.064 203.361 93.2369 185.689 100.44 171.717 116.268 189.389Z" fill="#80350E" fill-rule="evenodd"/><path d="M118.141 185.756 102.313 168.084 109.517 154.113 125.344 171.784Z" fill="#80350E" fill-rule="evenodd"/><path d="M127.217 168.151 111.39 150.48 118.594 136.508 134.421 154.179Z" fill="#80350E" fill-rule="evenodd"/><path d="M84.0325 23.5153 251.187 109.696 198.76 211.382 31.6058 125.201Z" fill="#D9D9D9" fill-rule="evenodd"/><path d="M195.365 209.631 247.792 107.946 247.792 107.946 257.238 112.816 261.814 127.132 219.127 209.926 204.811 214.501 195.365 209.631Z" fill="#D9D9D9" fill-rule="evenodd"/><path d="M86.6262 24.8524 34.1996 126.538 34.1996 126.538 24.7536 121.668 20.1777 107.352 62.8641 24.5582 77.1802 19.9823 86.6262 24.8524Z" fill="#D9D9D9" fill-rule="evenodd"/><path d="M87.1877 25.142 34.7613 126.828" stroke="#3A3A3A" stroke-width="6.875" stroke-miterlimit="8" fill="none" fill-rule="evenodd"/><path d="M247.792 107.945 195.365 209.631" stroke="#3A3A3A" stroke-width="6.875" stroke-miterlimit="8" fill="none" fill-rule="evenodd"/></g></g><path d="M2451.98 468.636 2471.68 478.793 2401.62 614.676 2381.92 604.518Z" fill="#BFBFBF" fill-rule="evenodd"/><path d="M2385.01 603.027 2401.05 611.296 2402.99 617.373 2391.36 639.919 2391.36 639.919 2367.31 627.516 2367.31 627.516 2378.93 604.97Z" fill="#BFBFBF" fill-rule="evenodd"/><path d="M2414.11 590.452 2398.28 572.781 2405.49 558.809 2421.32 576.48Z" fill="#80350E" fill-rule="evenodd"/><path d="M2405.04 608.057 2389.21 590.385 2396.41 576.413 2412.24 594.085Z" fill="#80350E" fill-rule="evenodd"/><path d="M2423.19 572.847 2407.36 555.176 2414.56 541.204 2430.39 558.875Z" fill="#80350E" fill-rule="evenodd"/><path d="M2432.27 555.243 2416.44 537.571 2423.64 523.599 2439.47 541.271Z" fill="#80350E" fill-rule="evenodd"/><path d="M2441.34 537.638 2425.51 519.966 2432.72 505.995 2448.55 523.666Z" fill="#80350E" fill-rule="evenodd"/><path d="M2450.42 520.033 2434.59 502.362 2441.79 488.39 2457.62 506.061Z" fill="#80350E" fill-rule="evenodd"/><path d="M2459.49 502.429 2443.67 484.757 2450.87 470.785 2466.7 488.457Z" fill="#80350E" fill-rule="evenodd"/><path d="M2416.31 357.793 2583.46 443.973 2531.04 545.659 2363.88 459.478Z" fill="#D9D9D9" fill-rule="evenodd"/><path d="M2527.64 543.909 2580.07 442.223 2580.07 442.223 2589.51 447.093 2594.09 461.409 2551.4 544.203 2537.09 548.779 2527.64 543.909Z" fill="#D9D9D9" fill-rule="evenodd"/><path d="M2418.9 359.13 2366.48 460.815 2366.48 460.815 2357.03 455.945 2352.46 441.629 2395.14 358.835 2409.46 354.26 2418.9 359.13Z" fill="#D9D9D9" fill-rule="evenodd"/><path d="M2419.47 359.419 2367.04 461.105" stroke="#3A3A3A" stroke-width="6.875" stroke-miterlimit="8" fill="none" fill-rule="evenodd"/><path d="M2580.07 442.222 2527.64 543.909" stroke="#3A3A3A" stroke-width="6.875" stroke-miterlimit="8" fill="none" fill-rule="evenodd"/></g></svg>