<svg width="422" height="423" xmlns="http://www.w3.org/2000/svg" xmlns:xlink="http://www.w3.org/1999/xlink" xml:space="preserve" overflow="hidden"><defs><filter id="fx0" x="-10%" y="-10%" width="120%" height="120%" filterUnits="userSpaceOnUse" primitiveUnits="userSpaceOnUse"><feComponentTransfer color-interpolation-filters="sRGB"><feFuncR type="discrete" tableValues="0 0"/><feFuncG type="discrete" tableValues="0 0"/><feFuncB type="discrete" tableValues="0 0"/><feFuncA type="linear" slope="0.4" intercept="0"/></feComponentTransfer><feGaussianBlur stdDeviation="6.11111 6.11111"/></filter></defs><g transform="translate(-2750 -222)"><g filter="url(#fx0)" transform="translate(2824 249)"><g><path d="M139.447 157.579 163.152 169.8 78.8585 333.295 55.1537 321.073Z" fill="#BFBFBF" fill-rule="evenodd"/><path d="M58.8685 319.279 78.165 329.228 80.502 336.54 66.5156 363.668 66.5156 363.668 37.5705 348.744 37.5705 348.744 51.5569 321.616Z" fill="#BFBFBF" fill-rule="evenodd"/><path d="M93.8853 304.148 74.842 282.886 83.5093 266.075 102.553 287.337Z" fill="#80350E" fill-rule="evenodd"/><path d="M82.9644 325.331 63.9211 304.068 72.5884 287.257 91.6318 308.52Z" fill="#80350E" fill-rule="evenodd"/><path d="M104.806 282.967 85.7629 261.704 94.4302 244.893 113.474 266.155Z" fill="#80350E" fill-rule="evenodd"/><path d="M115.727 261.785 96.6835 240.522 105.351 223.711 124.394 244.974Z" fill="#80350E" fill-rule="evenodd"/><path d="M126.648 240.603 107.604 219.34 116.272 202.529 135.315 223.792Z" fill="#80350E" fill-rule="evenodd"/><path d="M137.569 219.421 118.526 198.158 127.193 181.347 146.236 202.609Z" fill="#80350E" fill-rule="evenodd"/><path d="M148.49 198.239 129.446 176.976 138.114 160.165 157.157 181.428Z" fill="#80350E" fill-rule="evenodd"/><path d="M96.5298 24.2122 297.651 127.905 234.571 250.254 33.4499 146.561Z" fill="#D9D9D9" fill-rule="evenodd"/><path d="M230.485 248.147 293.565 125.799 293.565 125.799 304.931 131.659 310.437 148.884 259.076 248.502 241.851 254.007 230.485 248.147Z" fill="#D9D9D9" fill-rule="evenodd"/><path d="M99.6511 25.8211 36.5712 148.17 36.5712 148.17 25.2057 142.31 19.7 125.085 71.0604 25.467 88.2856 19.9613 99.6511 25.8211Z" fill="#D9D9D9" fill-rule="evenodd"/><path d="M100.326 26.1692 37.2466 148.518" stroke="#3A3A3A" stroke-width="6.875" stroke-miterlimit="8" fill="none" fill-rule="evenodd"/><path d="M293.565 125.799 230.486 248.147" stroke="#3A3A3A" stroke-width="6.875" stroke-miterlimit="8" fill="none" fill-rule="evenodd"/></g></g><path d="M2953.72 396.856 2977.43 409.078 2893.14 572.572 2869.43 560.35Z" fill="#BFBFBF" fill-rule="evenodd"/><path d="M2873.15 558.557 2892.44 568.505 2894.78 575.817 2880.79 602.945 2880.79 602.945 2851.85 588.021 2851.85 588.021 2865.83 560.894Z" fill="#BFBFBF" fill-rule="evenodd"/><path d="M2908.16 543.426 2889.12 522.163 2897.79 505.352 2916.83 526.615Z" fill="#80350E" fill-rule="evenodd"/><path d="M2897.24 564.608 2878.2 543.345 2886.87 526.534 2905.91 547.797Z" fill="#80350E" fill-rule="evenodd"/><path d="M2919.08 522.244 2900.04 500.981 2908.71 484.17 2927.75 505.433Z" fill="#80350E" fill-rule="evenodd"/><path d="M2930 501.062 2910.96 479.799 2919.63 462.988 2938.67 484.251Z" fill="#80350E" fill-rule="evenodd"/><path d="M2940.93 479.88 2921.88 458.618 2930.55 441.806 2949.59 463.069Z" fill="#80350E" fill-rule="evenodd"/><path d="M2951.85 458.698 2932.8 437.435 2941.47 420.624 2960.51 441.887Z" fill="#80350E" fill-rule="evenodd"/><path d="M2962.77 437.516 2943.72 416.254 2952.39 399.442 2971.43 420.705Z" fill="#80350E" fill-rule="evenodd"/><path d="M2910.81 263.489 3111.93 367.182 3048.85 489.531 2847.73 385.838Z" fill="#D9D9D9" fill-rule="evenodd"/><path d="M3044.76 487.425 3107.84 365.076 3107.84 365.076 3119.21 370.936 3124.71 388.161 3073.35 487.779 3056.13 493.284 3044.76 487.425Z" fill="#D9D9D9" fill-rule="evenodd"/><path d="M2913.93 265.098 2850.85 387.447 2850.85 387.447 2839.48 381.587 2833.98 364.362 2885.34 264.744 2902.56 259.239 2913.93 265.098Z" fill="#D9D9D9" fill-rule="evenodd"/><path d="M2914.6 265.447 2851.52 387.795" stroke="#3A3A3A" stroke-width="6.875" stroke-miterlimit="8" fill="none" fill-rule="evenodd"/><path d="M3107.84 365.076 3044.76 487.425" stroke="#3A3A3A" stroke-width="6.875" stroke-miterlimit="8" fill="none" fill-rule="evenodd"/></g></svg>